<mxfile host="app.diagrams.net" agent="Mozilla/5.0 (Windows NT 10.0; Win64; x64) AppleWebKit/537.36 (KHTML, like Gecko) Chrome/128.0.0.0 Safari/537.36" version="24.7.10">
  <diagram name="Page-1" id="5dESy3CNTPQsx0sL7qq8">
    <mxGraphModel dx="1071" dy="540" grid="1" gridSize="10" guides="1" tooltips="1" connect="1" arrows="1" fold="1" page="1" pageScale="1" pageWidth="850" pageHeight="1100" math="0" shadow="0">
      <root>
        <mxCell id="0" />
        <mxCell id="1" parent="0" />
        <mxCell id="9SV-68p5oGKli7hMYEzu-2" value="&lt;span style=&quot;white-space: pre;&quot;&gt;&#x9;&lt;/span&gt;&lt;span style=&quot;white-space: pre;&quot;&gt;&#x9;&lt;/span&gt;&lt;span style=&quot;white-space: pre;&quot;&gt;&#x9;&lt;/span&gt;&lt;span style=&quot;white-space: pre;&quot;&gt;&#x9;&lt;/span&gt;&lt;span style=&quot;white-space: pre;&quot;&gt;&#x9;&lt;/span&gt;&lt;span style=&quot;white-space: pre;&quot;&gt;&#x9;&lt;/span&gt;&lt;span style=&quot;white-space: pre;&quot;&gt;&#x9;&lt;/span&gt;CORE MANAGEMENT SERVICE" style="verticalAlign=top;align=left;spacingTop=8;spacingLeft=2;spacingRight=12;shape=cube;size=10;direction=south;fontStyle=4;html=1;whiteSpace=wrap;" vertex="1" parent="1">
          <mxGeometry x="250" y="290" width="570" height="870" as="geometry" />
        </mxCell>
        <mxCell id="9SV-68p5oGKli7hMYEzu-10" value="" style="edgeStyle=orthogonalEdgeStyle;rounded=0;orthogonalLoop=1;jettySize=auto;html=1;" edge="1" parent="1" source="9SV-68p5oGKli7hMYEzu-5" target="9SV-68p5oGKli7hMYEzu-2">
          <mxGeometry relative="1" as="geometry" />
        </mxCell>
        <mxCell id="9SV-68p5oGKli7hMYEzu-49" style="edgeStyle=orthogonalEdgeStyle;rounded=0;orthogonalLoop=1;jettySize=auto;html=1;exitX=1;exitY=0.25;exitDx=0;exitDy=0;entryX=0;entryY=0.5;entryDx=0;entryDy=0;" edge="1" parent="1" source="9SV-68p5oGKli7hMYEzu-5" target="9SV-68p5oGKli7hMYEzu-22">
          <mxGeometry relative="1" as="geometry">
            <Array as="points">
              <mxPoint x="1000" y="618" />
              <mxPoint x="1000" y="676" />
              <mxPoint x="700" y="676" />
              <mxPoint x="700" y="810" />
              <mxPoint x="320" y="810" />
              <mxPoint x="320" y="669" />
            </Array>
          </mxGeometry>
        </mxCell>
        <mxCell id="9SV-68p5oGKli7hMYEzu-58" style="edgeStyle=orthogonalEdgeStyle;rounded=0;orthogonalLoop=1;jettySize=auto;html=1;exitX=0.5;exitY=1;exitDx=0;exitDy=0;entryX=0;entryY=0.5;entryDx=0;entryDy=0;" edge="1" parent="1" source="9SV-68p5oGKli7hMYEzu-5" target="9SV-68p5oGKli7hMYEzu-54">
          <mxGeometry relative="1" as="geometry">
            <Array as="points">
              <mxPoint x="930" y="830" />
              <mxPoint x="280" y="830" />
              <mxPoint x="280" y="1049" />
            </Array>
          </mxGeometry>
        </mxCell>
        <mxCell id="9SV-68p5oGKli7hMYEzu-5" value="Admin" style="shape=module;align=left;spacingLeft=20;align=center;verticalAlign=top;whiteSpace=wrap;html=1;" vertex="1" parent="1">
          <mxGeometry x="880" y="606" width="100" height="50" as="geometry" />
        </mxCell>
        <mxCell id="9SV-68p5oGKli7hMYEzu-11" value="" style="edgeStyle=orthogonalEdgeStyle;rounded=0;orthogonalLoop=1;jettySize=auto;html=1;entryX=0;entryY=0.5;entryDx=0;entryDy=0;" edge="1" parent="1" source="9SV-68p5oGKli7hMYEzu-7" target="9SV-68p5oGKli7hMYEzu-16">
          <mxGeometry relative="1" as="geometry">
            <Array as="points">
              <mxPoint x="1030" y="240" />
              <mxPoint x="90" y="240" />
              <mxPoint x="90" y="260" />
              <mxPoint x="180" y="260" />
              <mxPoint x="180" y="481" />
            </Array>
          </mxGeometry>
        </mxCell>
        <mxCell id="9SV-68p5oGKli7hMYEzu-7" value="User" style="shape=module;align=left;spacingLeft=20;align=center;verticalAlign=top;whiteSpace=wrap;html=1;" vertex="1" parent="1">
          <mxGeometry x="980" y="150" width="100" height="70" as="geometry" />
        </mxCell>
        <mxCell id="9SV-68p5oGKli7hMYEzu-8" value="Support Staff" style="shape=module;align=left;spacingLeft=20;align=center;verticalAlign=top;whiteSpace=wrap;html=1;" vertex="1" parent="1">
          <mxGeometry x="840" y="348" width="100" height="50" as="geometry" />
        </mxCell>
        <mxCell id="9SV-68p5oGKli7hMYEzu-13" style="edgeStyle=orthogonalEdgeStyle;rounded=0;orthogonalLoop=1;jettySize=auto;html=1;entryX=1;entryY=0.5;entryDx=0;entryDy=0;" edge="1" parent="1" source="9SV-68p5oGKli7hMYEzu-8" target="9SV-68p5oGKli7hMYEzu-33">
          <mxGeometry relative="1" as="geometry" />
        </mxCell>
        <mxCell id="9SV-68p5oGKli7hMYEzu-14" value="user mangement" style="swimlane;fontStyle=0;childLayout=stackLayout;horizontal=1;startSize=26;fillColor=none;horizontalStack=0;resizeParent=1;resizeParentMax=0;resizeLast=0;collapsible=1;marginBottom=0;whiteSpace=wrap;html=1;" vertex="1" parent="1">
          <mxGeometry x="370" y="390" width="140" height="208" as="geometry" />
        </mxCell>
        <mxCell id="9SV-68p5oGKli7hMYEzu-15" value="dashboard" style="text;strokeColor=none;fillColor=none;align=left;verticalAlign=top;spacingLeft=4;spacingRight=4;overflow=hidden;rotatable=0;points=[[0,0.5],[1,0.5]];portConstraint=eastwest;whiteSpace=wrap;html=1;" vertex="1" parent="9SV-68p5oGKli7hMYEzu-14">
          <mxGeometry y="26" width="140" height="26" as="geometry" />
        </mxCell>
        <mxCell id="9SV-68p5oGKli7hMYEzu-27" value="register" style="text;strokeColor=none;fillColor=none;align=left;verticalAlign=top;spacingLeft=4;spacingRight=4;overflow=hidden;rotatable=0;points=[[0,0.5],[1,0.5]];portConstraint=eastwest;whiteSpace=wrap;html=1;" vertex="1" parent="9SV-68p5oGKli7hMYEzu-14">
          <mxGeometry y="52" width="140" height="26" as="geometry" />
        </mxCell>
        <mxCell id="9SV-68p5oGKli7hMYEzu-16" value="login" style="text;strokeColor=none;fillColor=none;align=left;verticalAlign=top;spacingLeft=4;spacingRight=4;overflow=hidden;rotatable=0;points=[[0,0.5],[1,0.5]];portConstraint=eastwest;whiteSpace=wrap;html=1;" vertex="1" parent="9SV-68p5oGKli7hMYEzu-14">
          <mxGeometry y="78" width="140" height="26" as="geometry" />
        </mxCell>
        <mxCell id="9SV-68p5oGKli7hMYEzu-17" value="view profile" style="text;strokeColor=none;fillColor=none;align=left;verticalAlign=top;spacingLeft=4;spacingRight=4;overflow=hidden;rotatable=0;points=[[0,0.5],[1,0.5]];portConstraint=eastwest;whiteSpace=wrap;html=1;" vertex="1" parent="9SV-68p5oGKli7hMYEzu-14">
          <mxGeometry y="104" width="140" height="26" as="geometry" />
        </mxCell>
        <mxCell id="9SV-68p5oGKli7hMYEzu-18" value="update account" style="text;strokeColor=none;fillColor=none;align=left;verticalAlign=top;spacingLeft=4;spacingRight=4;overflow=hidden;rotatable=0;points=[[0,0.5],[1,0.5]];portConstraint=eastwest;whiteSpace=wrap;html=1;" vertex="1" parent="9SV-68p5oGKli7hMYEzu-14">
          <mxGeometry y="130" width="140" height="26" as="geometry" />
        </mxCell>
        <mxCell id="9SV-68p5oGKli7hMYEzu-19" value="delete account" style="text;strokeColor=none;fillColor=none;align=left;verticalAlign=top;spacingLeft=4;spacingRight=4;overflow=hidden;rotatable=0;points=[[0,0.5],[1,0.5]];portConstraint=eastwest;whiteSpace=wrap;html=1;" vertex="1" parent="9SV-68p5oGKli7hMYEzu-14">
          <mxGeometry y="156" width="140" height="26" as="geometry" />
        </mxCell>
        <mxCell id="9SV-68p5oGKli7hMYEzu-20" value="view products" style="text;strokeColor=none;fillColor=none;align=left;verticalAlign=top;spacingLeft=4;spacingRight=4;overflow=hidden;rotatable=0;points=[[0,0.5],[1,0.5]];portConstraint=eastwest;whiteSpace=wrap;html=1;" vertex="1" parent="9SV-68p5oGKli7hMYEzu-14">
          <mxGeometry y="182" width="140" height="26" as="geometry" />
        </mxCell>
        <mxCell id="9SV-68p5oGKli7hMYEzu-40" style="edgeStyle=orthogonalEdgeStyle;rounded=0;orthogonalLoop=1;jettySize=auto;html=1;entryX=1;entryY=0.75;entryDx=0;entryDy=0;" edge="1" parent="1" source="9SV-68p5oGKli7hMYEzu-21" target="9SV-68p5oGKli7hMYEzu-5">
          <mxGeometry relative="1" as="geometry">
            <mxPoint x="150" y="670" as="targetPoint" />
          </mxGeometry>
        </mxCell>
        <mxCell id="9SV-68p5oGKli7hMYEzu-21" value="Admin management" style="swimlane;fontStyle=0;childLayout=stackLayout;horizontal=1;startSize=26;fillColor=none;horizontalStack=0;resizeParent=1;resizeParentMax=0;resizeLast=0;collapsible=1;marginBottom=0;whiteSpace=wrap;html=1;" vertex="1" parent="1">
          <mxGeometry x="340" y="630" width="180" height="156" as="geometry" />
        </mxCell>
        <mxCell id="9SV-68p5oGKli7hMYEzu-22" value="login" style="text;strokeColor=none;fillColor=none;align=left;verticalAlign=top;spacingLeft=4;spacingRight=4;overflow=hidden;rotatable=0;points=[[0,0.5],[1,0.5]];portConstraint=eastwest;whiteSpace=wrap;html=1;" vertex="1" parent="9SV-68p5oGKli7hMYEzu-21">
          <mxGeometry y="26" width="180" height="26" as="geometry" />
        </mxCell>
        <mxCell id="9SV-68p5oGKli7hMYEzu-50" value="dashboard" style="text;strokeColor=none;fillColor=none;align=left;verticalAlign=top;spacingLeft=4;spacingRight=4;overflow=hidden;rotatable=0;points=[[0,0.5],[1,0.5]];portConstraint=eastwest;whiteSpace=wrap;html=1;" vertex="1" parent="9SV-68p5oGKli7hMYEzu-21">
          <mxGeometry y="52" width="180" height="26" as="geometry" />
        </mxCell>
        <mxCell id="9SV-68p5oGKli7hMYEzu-28" value="add expense" style="text;strokeColor=none;fillColor=none;align=left;verticalAlign=top;spacingLeft=4;spacingRight=4;overflow=hidden;rotatable=0;points=[[0,0.5],[1,0.5]];portConstraint=eastwest;whiteSpace=wrap;html=1;" vertex="1" parent="9SV-68p5oGKli7hMYEzu-21">
          <mxGeometry y="78" width="180" height="26" as="geometry" />
        </mxCell>
        <mxCell id="9SV-68p5oGKli7hMYEzu-29" value="view expense" style="text;strokeColor=none;fillColor=none;align=left;verticalAlign=top;spacingLeft=4;spacingRight=4;overflow=hidden;rotatable=0;points=[[0,0.5],[1,0.5]];portConstraint=eastwest;whiteSpace=wrap;html=1;" vertex="1" parent="9SV-68p5oGKli7hMYEzu-21">
          <mxGeometry y="104" width="180" height="26" as="geometry" />
        </mxCell>
        <mxCell id="9SV-68p5oGKli7hMYEzu-30" value="create budget&amp;nbsp;" style="text;strokeColor=none;fillColor=none;align=left;verticalAlign=top;spacingLeft=4;spacingRight=4;overflow=hidden;rotatable=0;points=[[0,0.5],[1,0.5]];portConstraint=eastwest;whiteSpace=wrap;html=1;" vertex="1" parent="9SV-68p5oGKli7hMYEzu-21">
          <mxGeometry y="130" width="180" height="26" as="geometry" />
        </mxCell>
        <mxCell id="9SV-68p5oGKli7hMYEzu-31" value="Support management" style="swimlane;fontStyle=0;childLayout=stackLayout;horizontal=1;startSize=26;fillColor=none;horizontalStack=0;resizeParent=1;resizeParentMax=0;resizeLast=0;collapsible=1;marginBottom=0;whiteSpace=wrap;html=1;" vertex="1" parent="1">
          <mxGeometry x="610" y="430" width="140" height="182" as="geometry" />
        </mxCell>
        <mxCell id="9SV-68p5oGKli7hMYEzu-32" value="create ticket" style="text;strokeColor=none;fillColor=none;align=left;verticalAlign=top;spacingLeft=4;spacingRight=4;overflow=hidden;rotatable=0;points=[[0,0.5],[1,0.5]];portConstraint=eastwest;whiteSpace=wrap;html=1;" vertex="1" parent="9SV-68p5oGKli7hMYEzu-31">
          <mxGeometry y="26" width="140" height="26" as="geometry" />
        </mxCell>
        <mxCell id="9SV-68p5oGKli7hMYEzu-35" value="view ticket" style="text;strokeColor=none;fillColor=none;align=left;verticalAlign=top;spacingLeft=4;spacingRight=4;overflow=hidden;rotatable=0;points=[[0,0.5],[1,0.5]];portConstraint=eastwest;whiteSpace=wrap;html=1;" vertex="1" parent="9SV-68p5oGKli7hMYEzu-31">
          <mxGeometry y="52" width="140" height="26" as="geometry" />
        </mxCell>
        <mxCell id="9SV-68p5oGKli7hMYEzu-33" value="view ticket status" style="text;strokeColor=none;fillColor=none;align=left;verticalAlign=top;spacingLeft=4;spacingRight=4;overflow=hidden;rotatable=0;points=[[0,0.5],[1,0.5]];portConstraint=eastwest;whiteSpace=wrap;html=1;" vertex="1" parent="9SV-68p5oGKli7hMYEzu-31">
          <mxGeometry y="78" width="140" height="26" as="geometry" />
        </mxCell>
        <mxCell id="9SV-68p5oGKli7hMYEzu-34" value="update ticket" style="text;strokeColor=none;fillColor=none;align=left;verticalAlign=top;spacingLeft=4;spacingRight=4;overflow=hidden;rotatable=0;points=[[0,0.5],[1,0.5]];portConstraint=eastwest;whiteSpace=wrap;html=1;" vertex="1" parent="9SV-68p5oGKli7hMYEzu-31">
          <mxGeometry y="104" width="140" height="26" as="geometry" />
        </mxCell>
        <mxCell id="9SV-68p5oGKli7hMYEzu-36" value="knowledge base" style="text;strokeColor=none;fillColor=none;align=left;verticalAlign=top;spacingLeft=4;spacingRight=4;overflow=hidden;rotatable=0;points=[[0,0.5],[1,0.5]];portConstraint=eastwest;whiteSpace=wrap;html=1;" vertex="1" parent="9SV-68p5oGKli7hMYEzu-31">
          <mxGeometry y="130" width="140" height="26" as="geometry" />
        </mxCell>
        <mxCell id="9SV-68p5oGKli7hMYEzu-37" value="Add knowledge base&amp;nbsp;" style="text;strokeColor=none;fillColor=none;align=left;verticalAlign=top;spacingLeft=4;spacingRight=4;overflow=hidden;rotatable=0;points=[[0,0.5],[1,0.5]];portConstraint=eastwest;whiteSpace=wrap;html=1;" vertex="1" parent="9SV-68p5oGKli7hMYEzu-31">
          <mxGeometry y="156" width="140" height="26" as="geometry" />
        </mxCell>
        <mxCell id="9SV-68p5oGKli7hMYEzu-41" style="edgeStyle=orthogonalEdgeStyle;rounded=0;orthogonalLoop=1;jettySize=auto;html=1;exitX=0;exitY=0.5;exitDx=0;exitDy=0;entryX=1;entryY=0.5;entryDx=0;entryDy=0;" edge="1" parent="1" source="9SV-68p5oGKli7hMYEzu-27" target="9SV-68p5oGKli7hMYEzu-7">
          <mxGeometry relative="1" as="geometry">
            <Array as="points">
              <mxPoint x="220" y="455" />
              <mxPoint x="220" y="270" />
              <mxPoint x="1100" y="270" />
              <mxPoint x="1100" y="185" />
            </Array>
          </mxGeometry>
        </mxCell>
        <mxCell id="9SV-68p5oGKli7hMYEzu-42" style="edgeStyle=orthogonalEdgeStyle;rounded=0;orthogonalLoop=1;jettySize=auto;html=1;exitX=1;exitY=0.5;exitDx=0;exitDy=0;entryX=0;entryY=0;entryDx=0;entryDy=15;entryPerimeter=0;" edge="1" parent="1" source="9SV-68p5oGKli7hMYEzu-32" target="9SV-68p5oGKli7hMYEzu-8">
          <mxGeometry relative="1" as="geometry" />
        </mxCell>
        <mxCell id="9SV-68p5oGKli7hMYEzu-43" value="Product Management" style="swimlane;fontStyle=0;childLayout=stackLayout;horizontal=1;startSize=26;fillColor=none;horizontalStack=0;resizeParent=1;resizeParentMax=0;resizeLast=0;collapsible=1;marginBottom=0;whiteSpace=wrap;html=1;" vertex="1" parent="1">
          <mxGeometry x="350" y="840" width="140" height="156" as="geometry" />
        </mxCell>
        <mxCell id="9SV-68p5oGKli7hMYEzu-44" value="list products" style="text;strokeColor=none;fillColor=none;align=left;verticalAlign=top;spacingLeft=4;spacingRight=4;overflow=hidden;rotatable=0;points=[[0,0.5],[1,0.5]];portConstraint=eastwest;whiteSpace=wrap;html=1;" vertex="1" parent="9SV-68p5oGKli7hMYEzu-43">
          <mxGeometry y="26" width="140" height="26" as="geometry" />
        </mxCell>
        <mxCell id="9SV-68p5oGKli7hMYEzu-45" value="view products" style="text;strokeColor=none;fillColor=none;align=left;verticalAlign=top;spacingLeft=4;spacingRight=4;overflow=hidden;rotatable=0;points=[[0,0.5],[1,0.5]];portConstraint=eastwest;whiteSpace=wrap;html=1;" vertex="1" parent="9SV-68p5oGKli7hMYEzu-43">
          <mxGeometry y="52" width="140" height="26" as="geometry" />
        </mxCell>
        <mxCell id="9SV-68p5oGKli7hMYEzu-46" value="update products" style="text;strokeColor=none;fillColor=none;align=left;verticalAlign=top;spacingLeft=4;spacingRight=4;overflow=hidden;rotatable=0;points=[[0,0.5],[1,0.5]];portConstraint=eastwest;whiteSpace=wrap;html=1;" vertex="1" parent="9SV-68p5oGKli7hMYEzu-43">
          <mxGeometry y="78" width="140" height="26" as="geometry" />
        </mxCell>
        <mxCell id="9SV-68p5oGKli7hMYEzu-51" value="create products" style="text;strokeColor=none;fillColor=none;align=left;verticalAlign=top;spacingLeft=4;spacingRight=4;overflow=hidden;rotatable=0;points=[[0,0.5],[1,0.5]];portConstraint=eastwest;whiteSpace=wrap;html=1;" vertex="1" parent="9SV-68p5oGKli7hMYEzu-43">
          <mxGeometry y="104" width="140" height="26" as="geometry" />
        </mxCell>
        <mxCell id="9SV-68p5oGKli7hMYEzu-52" value="delete products" style="text;strokeColor=none;fillColor=none;align=left;verticalAlign=top;spacingLeft=4;spacingRight=4;overflow=hidden;rotatable=0;points=[[0,0.5],[1,0.5]];portConstraint=eastwest;whiteSpace=wrap;html=1;" vertex="1" parent="9SV-68p5oGKli7hMYEzu-43">
          <mxGeometry y="130" width="140" height="26" as="geometry" />
        </mxCell>
        <mxCell id="9SV-68p5oGKli7hMYEzu-47" style="edgeStyle=orthogonalEdgeStyle;rounded=0;orthogonalLoop=1;jettySize=auto;html=1;exitX=0;exitY=0.5;exitDx=0;exitDy=0;entryX=-0.002;entryY=0.123;entryDx=0;entryDy=0;entryPerimeter=0;" edge="1" parent="1" source="9SV-68p5oGKli7hMYEzu-45" target="9SV-68p5oGKli7hMYEzu-21">
          <mxGeometry relative="1" as="geometry" />
        </mxCell>
        <mxCell id="9SV-68p5oGKli7hMYEzu-48" style="edgeStyle=orthogonalEdgeStyle;rounded=0;orthogonalLoop=1;jettySize=auto;html=1;exitX=1;exitY=0.5;exitDx=0;exitDy=0;entryX=1;entryY=0.073;entryDx=0;entryDy=0;entryPerimeter=0;" edge="1" parent="1" source="9SV-68p5oGKli7hMYEzu-28" target="9SV-68p5oGKli7hMYEzu-43">
          <mxGeometry relative="1" as="geometry" />
        </mxCell>
        <mxCell id="9SV-68p5oGKli7hMYEzu-53" value="Security management" style="swimlane;fontStyle=0;childLayout=stackLayout;horizontal=1;startSize=26;fillColor=none;horizontalStack=0;resizeParent=1;resizeParentMax=0;resizeLast=0;collapsible=1;marginBottom=0;whiteSpace=wrap;html=1;" vertex="1" parent="1">
          <mxGeometry x="350" y="1010" width="140" height="104" as="geometry" />
        </mxCell>
        <mxCell id="9SV-68p5oGKli7hMYEzu-54" value="view security policies" style="text;strokeColor=none;fillColor=none;align=left;verticalAlign=top;spacingLeft=4;spacingRight=4;overflow=hidden;rotatable=0;points=[[0,0.5],[1,0.5]];portConstraint=eastwest;whiteSpace=wrap;html=1;" vertex="1" parent="9SV-68p5oGKli7hMYEzu-53">
          <mxGeometry y="26" width="140" height="26" as="geometry" />
        </mxCell>
        <mxCell id="9SV-68p5oGKli7hMYEzu-55" value="update security policies" style="text;strokeColor=none;fillColor=none;align=left;verticalAlign=top;spacingLeft=4;spacingRight=4;overflow=hidden;rotatable=0;points=[[0,0.5],[1,0.5]];portConstraint=eastwest;whiteSpace=wrap;html=1;" vertex="1" parent="9SV-68p5oGKli7hMYEzu-53">
          <mxGeometry y="52" width="140" height="26" as="geometry" />
        </mxCell>
        <mxCell id="9SV-68p5oGKli7hMYEzu-56" value="encryption&amp;nbsp;" style="text;strokeColor=none;fillColor=none;align=left;verticalAlign=top;spacingLeft=4;spacingRight=4;overflow=hidden;rotatable=0;points=[[0,0.5],[1,0.5]];portConstraint=eastwest;whiteSpace=wrap;html=1;" vertex="1" parent="9SV-68p5oGKli7hMYEzu-53">
          <mxGeometry y="78" width="140" height="26" as="geometry" />
        </mxCell>
        <mxCell id="9SV-68p5oGKli7hMYEzu-57" style="edgeStyle=orthogonalEdgeStyle;rounded=0;orthogonalLoop=1;jettySize=auto;html=1;exitX=0;exitY=0.5;exitDx=0;exitDy=0;entryX=0.25;entryY=1;entryDx=0;entryDy=0;" edge="1" parent="1" source="9SV-68p5oGKli7hMYEzu-55" target="9SV-68p5oGKli7hMYEzu-5">
          <mxGeometry relative="1" as="geometry">
            <Array as="points">
              <mxPoint x="300" y="1075" />
              <mxPoint x="300" y="820" />
              <mxPoint x="905" y="820" />
            </Array>
          </mxGeometry>
        </mxCell>
        <mxCell id="9SV-68p5oGKli7hMYEzu-59" style="edgeStyle=orthogonalEdgeStyle;rounded=0;orthogonalLoop=1;jettySize=auto;html=1;exitX=0;exitY=0;exitDx=695;exitDy=370;exitPerimeter=0;entryX=0.82;entryY=1;entryDx=0;entryDy=0;entryPerimeter=0;" edge="1" parent="1" source="9SV-68p5oGKli7hMYEzu-2" target="9SV-68p5oGKli7hMYEzu-5">
          <mxGeometry relative="1" as="geometry" />
        </mxCell>
        <mxCell id="9SV-68p5oGKli7hMYEzu-60" value="&lt;span style=&quot;white-space: pre;&quot;&gt;&#x9;&lt;/span&gt;&lt;span style=&quot;white-space: pre;&quot;&gt;&#x9;&lt;/span&gt;&lt;span style=&quot;white-space: pre;&quot;&gt;&#x9;&lt;/span&gt;&lt;span style=&quot;white-space: pre;&quot;&gt;&#x9;&lt;/span&gt;USER INTERACTION &amp;amp; FINANCIAL SERVICES" style="verticalAlign=top;align=left;spacingTop=8;spacingLeft=2;spacingRight=12;shape=cube;size=10;direction=south;fontStyle=4;html=1;whiteSpace=wrap;" vertex="1" parent="1">
          <mxGeometry x="1330" y="319" width="490" height="812" as="geometry" />
        </mxCell>
        <mxCell id="9SV-68p5oGKli7hMYEzu-61" value="dashboard service" style="swimlane;fontStyle=0;childLayout=stackLayout;horizontal=1;startSize=26;fillColor=none;horizontalStack=0;resizeParent=1;resizeParentMax=0;resizeLast=0;collapsible=1;marginBottom=0;whiteSpace=wrap;html=1;" vertex="1" parent="1">
          <mxGeometry x="1470" y="420" width="220" height="104" as="geometry" />
        </mxCell>
        <mxCell id="9SV-68p5oGKli7hMYEzu-62" value="view dashboard" style="text;strokeColor=none;fillColor=none;align=left;verticalAlign=top;spacingLeft=4;spacingRight=4;overflow=hidden;rotatable=0;points=[[0,0.5],[1,0.5]];portConstraint=eastwest;whiteSpace=wrap;html=1;" vertex="1" parent="9SV-68p5oGKli7hMYEzu-61">
          <mxGeometry y="26" width="220" height="26" as="geometry" />
        </mxCell>
        <mxCell id="9SV-68p5oGKli7hMYEzu-63" value="print data" style="text;strokeColor=none;fillColor=none;align=left;verticalAlign=top;spacingLeft=4;spacingRight=4;overflow=hidden;rotatable=0;points=[[0,0.5],[1,0.5]];portConstraint=eastwest;whiteSpace=wrap;html=1;" vertex="1" parent="9SV-68p5oGKli7hMYEzu-61">
          <mxGeometry y="52" width="220" height="26" as="geometry" />
        </mxCell>
        <mxCell id="9SV-68p5oGKli7hMYEzu-64" value="data based on day/month/year" style="text;strokeColor=none;fillColor=none;align=left;verticalAlign=top;spacingLeft=4;spacingRight=4;overflow=hidden;rotatable=0;points=[[0,0.5],[1,0.5]];portConstraint=eastwest;whiteSpace=wrap;html=1;" vertex="1" parent="9SV-68p5oGKli7hMYEzu-61">
          <mxGeometry y="78" width="220" height="26" as="geometry" />
        </mxCell>
        <mxCell id="9SV-68p5oGKli7hMYEzu-66" style="edgeStyle=orthogonalEdgeStyle;rounded=0;orthogonalLoop=1;jettySize=auto;html=1;exitX=0;exitY=0.5;exitDx=0;exitDy=0;entryX=0.5;entryY=0;entryDx=0;entryDy=0;" edge="1" parent="1" source="9SV-68p5oGKli7hMYEzu-63" target="9SV-68p5oGKli7hMYEzu-5">
          <mxGeometry relative="1" as="geometry" />
        </mxCell>
        <mxCell id="9SV-68p5oGKli7hMYEzu-67" style="edgeStyle=orthogonalEdgeStyle;rounded=0;orthogonalLoop=1;jettySize=auto;html=1;exitX=0;exitY=0.5;exitDx=0;exitDy=0;entryX=1;entryY=0.25;entryDx=0;entryDy=0;" edge="1" parent="1" source="9SV-68p5oGKli7hMYEzu-62" target="9SV-68p5oGKli7hMYEzu-7">
          <mxGeometry relative="1" as="geometry" />
        </mxCell>
        <mxCell id="9SV-68p5oGKli7hMYEzu-68" value="personal financial services" style="swimlane;fontStyle=0;childLayout=stackLayout;horizontal=1;startSize=26;fillColor=none;horizontalStack=0;resizeParent=1;resizeParentMax=0;resizeLast=0;collapsible=1;marginBottom=0;whiteSpace=wrap;html=1;" vertex="1" parent="1">
          <mxGeometry x="1440" y="580" width="260" height="156" as="geometry" />
        </mxCell>
        <mxCell id="9SV-68p5oGKli7hMYEzu-69" value="create budget" style="text;strokeColor=none;fillColor=none;align=left;verticalAlign=top;spacingLeft=4;spacingRight=4;overflow=hidden;rotatable=0;points=[[0,0.5],[1,0.5]];portConstraint=eastwest;whiteSpace=wrap;html=1;" vertex="1" parent="9SV-68p5oGKli7hMYEzu-68">
          <mxGeometry y="26" width="260" height="26" as="geometry" />
        </mxCell>
        <mxCell id="9SV-68p5oGKli7hMYEzu-70" value="view budget" style="text;strokeColor=none;fillColor=none;align=left;verticalAlign=top;spacingLeft=4;spacingRight=4;overflow=hidden;rotatable=0;points=[[0,0.5],[1,0.5]];portConstraint=eastwest;whiteSpace=wrap;html=1;" vertex="1" parent="9SV-68p5oGKli7hMYEzu-68">
          <mxGeometry y="52" width="260" height="26" as="geometry" />
        </mxCell>
        <mxCell id="9SV-68p5oGKli7hMYEzu-72" value="update budget" style="text;strokeColor=none;fillColor=none;align=left;verticalAlign=top;spacingLeft=4;spacingRight=4;overflow=hidden;rotatable=0;points=[[0,0.5],[1,0.5]];portConstraint=eastwest;whiteSpace=wrap;html=1;" vertex="1" parent="9SV-68p5oGKli7hMYEzu-68">
          <mxGeometry y="78" width="260" height="26" as="geometry" />
        </mxCell>
        <mxCell id="9SV-68p5oGKli7hMYEzu-73" value="add expense" style="text;strokeColor=none;fillColor=none;align=left;verticalAlign=top;spacingLeft=4;spacingRight=4;overflow=hidden;rotatable=0;points=[[0,0.5],[1,0.5]];portConstraint=eastwest;whiteSpace=wrap;html=1;" vertex="1" parent="9SV-68p5oGKli7hMYEzu-68">
          <mxGeometry y="104" width="260" height="26" as="geometry" />
        </mxCell>
        <mxCell id="9SV-68p5oGKli7hMYEzu-71" value="view expenses" style="text;strokeColor=none;fillColor=none;align=left;verticalAlign=top;spacingLeft=4;spacingRight=4;overflow=hidden;rotatable=0;points=[[0,0.5],[1,0.5]];portConstraint=eastwest;whiteSpace=wrap;html=1;" vertex="1" parent="9SV-68p5oGKli7hMYEzu-68">
          <mxGeometry y="130" width="260" height="26" as="geometry" />
        </mxCell>
        <mxCell id="9SV-68p5oGKli7hMYEzu-74" style="edgeStyle=orthogonalEdgeStyle;rounded=0;orthogonalLoop=1;jettySize=auto;html=1;exitX=0;exitY=0.5;exitDx=0;exitDy=0;entryX=1;entryY=0.75;entryDx=0;entryDy=0;" edge="1" parent="1" source="9SV-68p5oGKli7hMYEzu-70" target="9SV-68p5oGKli7hMYEzu-7">
          <mxGeometry relative="1" as="geometry" />
        </mxCell>
        <mxCell id="9SV-68p5oGKli7hMYEzu-75" value="invest mangement service" style="swimlane;fontStyle=0;childLayout=stackLayout;horizontal=1;startSize=26;fillColor=none;horizontalStack=0;resizeParent=1;resizeParentMax=0;resizeLast=0;collapsible=1;marginBottom=0;whiteSpace=wrap;html=1;" vertex="1" parent="1">
          <mxGeometry x="1450" y="780" width="250" height="104" as="geometry" />
        </mxCell>
        <mxCell id="9SV-68p5oGKli7hMYEzu-76" value="view portfolios" style="text;strokeColor=none;fillColor=none;align=left;verticalAlign=top;spacingLeft=4;spacingRight=4;overflow=hidden;rotatable=0;points=[[0,0.5],[1,0.5]];portConstraint=eastwest;whiteSpace=wrap;html=1;" vertex="1" parent="9SV-68p5oGKli7hMYEzu-75">
          <mxGeometry y="26" width="250" height="26" as="geometry" />
        </mxCell>
        <mxCell id="9SV-68p5oGKli7hMYEzu-77" value="create /update portfolios" style="text;strokeColor=none;fillColor=none;align=left;verticalAlign=top;spacingLeft=4;spacingRight=4;overflow=hidden;rotatable=0;points=[[0,0.5],[1,0.5]];portConstraint=eastwest;whiteSpace=wrap;html=1;" vertex="1" parent="9SV-68p5oGKli7hMYEzu-75">
          <mxGeometry y="52" width="250" height="26" as="geometry" />
        </mxCell>
        <mxCell id="9SV-68p5oGKli7hMYEzu-78" value="get investment updates&amp;nbsp;" style="text;strokeColor=none;fillColor=none;align=left;verticalAlign=top;spacingLeft=4;spacingRight=4;overflow=hidden;rotatable=0;points=[[0,0.5],[1,0.5]];portConstraint=eastwest;whiteSpace=wrap;html=1;" vertex="1" parent="9SV-68p5oGKli7hMYEzu-75">
          <mxGeometry y="78" width="250" height="26" as="geometry" />
        </mxCell>
        <mxCell id="9SV-68p5oGKli7hMYEzu-79" style="edgeStyle=orthogonalEdgeStyle;rounded=0;orthogonalLoop=1;jettySize=auto;html=1;exitX=0;exitY=0.5;exitDx=0;exitDy=0;entryX=0.75;entryY=0;entryDx=0;entryDy=0;" edge="1" parent="1" source="9SV-68p5oGKli7hMYEzu-76" target="9SV-68p5oGKli7hMYEzu-7">
          <mxGeometry relative="1" as="geometry" />
        </mxCell>
        <mxCell id="9SV-68p5oGKli7hMYEzu-80" value="transaction service" style="swimlane;fontStyle=0;childLayout=stackLayout;horizontal=1;startSize=26;fillColor=none;horizontalStack=0;resizeParent=1;resizeParentMax=0;resizeLast=0;collapsible=1;marginBottom=0;whiteSpace=wrap;html=1;" vertex="1" parent="1">
          <mxGeometry x="1500" y="920" width="140" height="104" as="geometry" />
        </mxCell>
        <mxCell id="9SV-68p5oGKli7hMYEzu-81" value="create transaction" style="text;strokeColor=none;fillColor=none;align=left;verticalAlign=top;spacingLeft=4;spacingRight=4;overflow=hidden;rotatable=0;points=[[0,0.5],[1,0.5]];portConstraint=eastwest;whiteSpace=wrap;html=1;" vertex="1" parent="9SV-68p5oGKli7hMYEzu-80">
          <mxGeometry y="26" width="140" height="26" as="geometry" />
        </mxCell>
        <mxCell id="9SV-68p5oGKli7hMYEzu-82" value="view transaction details" style="text;strokeColor=none;fillColor=none;align=left;verticalAlign=top;spacingLeft=4;spacingRight=4;overflow=hidden;rotatable=0;points=[[0,0.5],[1,0.5]];portConstraint=eastwest;whiteSpace=wrap;html=1;" vertex="1" parent="9SV-68p5oGKli7hMYEzu-80">
          <mxGeometry y="52" width="140" height="26" as="geometry" />
        </mxCell>
        <mxCell id="9SV-68p5oGKli7hMYEzu-83" value="view transaction history" style="text;strokeColor=none;fillColor=none;align=left;verticalAlign=top;spacingLeft=4;spacingRight=4;overflow=hidden;rotatable=0;points=[[0,0.5],[1,0.5]];portConstraint=eastwest;whiteSpace=wrap;html=1;" vertex="1" parent="9SV-68p5oGKli7hMYEzu-80">
          <mxGeometry y="78" width="140" height="26" as="geometry" />
        </mxCell>
        <mxCell id="9SV-68p5oGKli7hMYEzu-84" style="edgeStyle=orthogonalEdgeStyle;rounded=0;orthogonalLoop=1;jettySize=auto;html=1;exitX=0;exitY=0.5;exitDx=0;exitDy=0;entryX=0.75;entryY=1;entryDx=0;entryDy=0;" edge="1" parent="1" source="9SV-68p5oGKli7hMYEzu-81" target="9SV-68p5oGKli7hMYEzu-7">
          <mxGeometry relative="1" as="geometry" />
        </mxCell>
        <mxCell id="9SV-68p5oGKli7hMYEzu-86" value="external services" style="shape=module;align=left;spacingLeft=20;align=center;verticalAlign=top;whiteSpace=wrap;html=1;" vertex="1" parent="1">
          <mxGeometry x="1090" y="736" width="100" height="50" as="geometry" />
        </mxCell>
        <mxCell id="9SV-68p5oGKli7hMYEzu-87" style="edgeStyle=orthogonalEdgeStyle;rounded=0;orthogonalLoop=1;jettySize=auto;html=1;exitX=0;exitY=0.5;exitDx=0;exitDy=0;entryX=1;entryY=0.75;entryDx=0;entryDy=0;" edge="1" parent="1" source="9SV-68p5oGKli7hMYEzu-82" target="9SV-68p5oGKli7hMYEzu-86">
          <mxGeometry relative="1" as="geometry" />
        </mxCell>
      </root>
    </mxGraphModel>
  </diagram>
</mxfile>
